<svg width="19" height="19" viewBox="0 0 19 19" fill="none" xmlns="http://www.w3.org/2000/svg">
<path d="M18.75 10C18.75 14.8203 14.8242 18.7461 10.0039 18.7461C8.09531 18.7461 6.28555 18.1375 4.76172 16.9937C4.20938 16.5801 4.09766 15.7961 4.51207 15.2434C4.92652 14.693 5.7109 14.5805 6.26207 14.9943C7.34957 15.8111 8.64488 16.242 10.0078 16.242C13.4492 16.2422 16.25 13.4414 16.25 10C16.25 6.55859 13.4504 3.75781 10.0078 3.75781C8.04297 3.75859 6.19531 4.69922 5.02344 6.25H7.5C8.19023 6.25 8.75 6.80898 8.75 7.5C8.75 8.19102 8.19141 8.75 7.5 8.75H1.875C1.18477 8.75 0.625 8.19102 0.625 7.5V1.875C0.625 1.18398 1.18477 0.625 1.875 0.625C2.56523 0.625 3.125 1.18398 3.125 1.875V4.61836C4.76953 2.52266 7.26953 1.2543 10.0039 1.2543C14.8242 1.2543 18.75 5.17969 18.75 10Z" fill="black"/>
</svg>
